<svg xmlns="http://www.w3.org/2000/svg" xmlns:xlink="http://www.w3.org/1999/xlink" version="1.1" x="0px" y="0px" viewBox="0 0 100 125" style="enable-background:new 0 0 100 100;" xml:space="preserve"><style type="text/css">
	.st0{fill:none;stroke:#000000;stroke-width:7;stroke-miterlimit:10;}
</style><circle cx="44.3" cy="39.8" r="4.4"/><path d="M36.5,50.2v9.3c0,2.2,1.5,4.1,3.7,4.5v10l0,0c0,1.9,1.5,3.4,3.4,3.4h1.5c1.8,0,3.3-1.5,3.3-3.4V63.9  c2.2-0.4,3.7-2.3,3.7-4.5v-9.3c0-2.5-2-4.6-4.6-4.6h-6.5C38.6,45.6,36.5,47.7,36.5,50.2z"/><circle cx="24" cy="28.4" r="5.8"/><path d="M13.9,41.9V54c0,2.8,2,5.3,4.9,5.9V73l0,0c0,2.5,1.9,4.4,4.4,4.4h1.9c2.4,0,4.3-2,4.3-4.4V59.8c2.8-0.5,4.9-3,4.9-5.9V41.9  c0-3.3-2.7-6-6-6h-8.4C16.5,36,13.9,38.6,13.9,41.9z"/><circle cx="72.8" cy="56.1" r="2.5"/><path d="M68.4,62v5.2c0,1.2,0.9,2.3,2.1,2.5v5.7c0,1,0.8,1.9,1.9,1.9h0.8c1,0,1.9-0.8,1.9-1.9v-5.7c1.2-0.3,2.1-1.3,2.1-2.5V62  c0-1.5-1.1-2.6-2.6-2.6H71C69.6,59.4,68.4,60.6,68.4,62z"/><circle cx="60.2" cy="49" r="3.4"/><path d="M54.4,56.9v7c0,1.6,1.2,3,2.8,3.4v7.6c0,1.3,1.1,2.5,2.5,2.5h1.1c1.3,0,2.5-1.1,2.5-2.5v-7.6c1.6-0.3,2.8-1.7,2.8-3.4v-7  c0-1.9-1.5-3.4-3.4-3.4h-4.9C55.9,53.4,54.3,55,54.4,56.9z"/><circle cx="82.8" cy="61.7" r="1.9"/><path d="M79.5,66v3.9c0,0.9,0.7,1.7,1.6,1.9V76l0,0c0,0.8,0.7,1.4,1.4,1.4h0.6l0,0c0.8,0,1.4-0.7,1.4-1.4v-4.2  c0.9-0.2,1.6-1,1.6-1.9V66c0-1.1-0.9-1.9-2-1.9h-2.7C80.4,64.1,79.5,64.9,79.5,66z"/><text x="0" y="115" fill="#000000" font-size="5px" font-weight="bold" font-family="'Helvetica Neue', Helvetica, Arial-Unicode, Arial, Sans-serif">Created by Eliricon</text><text x="0" y="120" fill="#000000" font-size="5px" font-weight="bold" font-family="'Helvetica Neue', Helvetica, Arial-Unicode, Arial, Sans-serif">from the Noun Project</text></svg>