<svg class="svg-icon" style="width: 1em; height: 1em;vertical-align: middle;fill: currentColor;overflow: hidden;" viewBox="0 0 1024 1024" version="1.1" xmlns="http://www.w3.org/2000/svg"><path d="M951.914 564.843c1.174 3.029 1.835 6.272 1.835 9.707l0 366.357c0 46.016-46.379 80.427-87.787 80.427L646.378 1021.334 382.954 1021.334 163.392 1021.334c-41.451 0-87.808-34.39-87.808-80.427L75.584 574.55c0-3.435 0.683-6.678 1.834-9.707C31.829 512.363 5.333 424.96 5.333 360.086L216.106 2.667l597.142 0L1024 360.086C1024 424.96 997.504 512.342 951.914 564.843L951.914 564.843zM128.298 940.907c0 12.501 18.667 26.815 35.114 26.815l702.549 0c16.427 0 35.115-14.314 35.115-26.815L901.076 603.328c-11.115 4.48-22.827 6.934-35.115 6.934-97.003 0-175.616-44.267-175.616-142.955 0 98.688-78.677 143.531-175.658 143.531-97.003 0-175.638-44.843-175.638-143.531 0 98.688-78.634 142.955-175.637 142.955-12.309 0-24-2.453-35.115-6.934L128.298 940.907 128.298 940.907zM783.402 56.278l-5.291 0-532.16 0L58.474 374.145c5.291 81.983 54.592 182.507 104.917 182.507 45.931 0 122.944-11.584 122.944-89.345 0-29.61 23.594-53.61 52.694-53.61 29.098 0 52.692 24 52.692 53.61 0 78.229 77.035 89.92 122.944 89.92s122.944-11.69 122.944-89.92c0-29.61 23.573-53.61 52.715-53.61 29.077 0 52.672 24 52.672 53.61 0 77.761 77.034 89.345 122.965 89.345 50.325 0 99.627-100.523 104.875-182.507L783.402 56.278 783.402 56.278zM863.786 351.169 165.567 351.169c-14.464 0-26.197-12.012-26.197-26.816 0-14.827 11.712-26.816 26.197-26.816l698.219 0c14.464 0 26.176 11.989 26.176 26.816C889.962 339.157 878.25 351.169 863.786 351.169L863.786 351.169z"  /></svg>